<svg width="20" height="20" viewBox="0 0 20 20" fill="none" xmlns="http://www.w3.org/2000/svg">
<path d="M1.66663 2.5H2.70829V8.08266C2.32584 8.20836 1.97394 8.40141 1.66663 8.64776V2.5Z" fill="#171717"/>
<path d="M15.4166 14.1667H16.25V2.5H15.2083V10.0875C15.343 10.4494 15.4166 10.8411 15.4166 11.25V14.1667Z" fill="#171717"/>
<path d="M14.1666 2.5V8.64776C13.8593 8.40141 13.5074 8.20836 13.125 8.08266V2.5H14.1666Z" fill="#171717"/>
<path d="M12.0833 7.91667V2.5H9.99996V6.49324C10.5554 6.71798 11.0476 7.09132 11.4166 7.58333L11.6666 7.91667H12.0833Z" fill="#171717"/>
<path d="M8.95829 2.5V6.2565C8.88918 6.25218 8.8197 6.25 8.74996 6.25H7.91663V2.5H8.95829Z" fill="#171717"/>
<path d="M6.87496 6.2565V2.5H3.74996V7.91667H4.16663L4.41663 7.58333C5.00429 6.79978 5.90434 6.3172 6.87496 6.2565Z" fill="#171717"/>
<path d="M17.2916 2.5H18.3333V14.1667H17.2916V2.5Z" fill="#171717"/>
<path fill-rule="evenodd" clip-rule="evenodd" d="M5.62496 12.9167C5.62496 11.651 6.65097 10.625 7.91663 10.625C9.18228 10.625 10.2083 11.651 10.2083 12.9167C10.2083 14.1823 9.18228 15.2083 7.91663 15.2083C6.65097 15.2083 5.62496 14.1823 5.62496 12.9167ZM7.91663 11.875C7.34133 11.875 6.87496 12.3414 6.87496 12.9167C6.87496 13.492 7.34133 13.9583 7.91663 13.9583C8.49192 13.9583 8.95829 13.492 8.95829 12.9167C8.95829 12.3414 8.49192 11.875 7.91663 11.875Z" fill="#171717"/>
<path fill-rule="evenodd" clip-rule="evenodd" d="M1.66663 15.4167V11.25C1.66663 10.0994 2.59937 9.16667 3.74996 9.16667H4.79163L5.41663 8.33333C5.81007 7.80874 6.42755 7.5 7.08329 7.5H8.74996C9.4057 7.5 10.0232 7.80874 10.4166 8.33333L11.0416 9.16667H12.0833C13.2339 9.16667 14.1666 10.0994 14.1666 11.25V15.4167C14.1666 16.5673 13.2339 17.5 12.0833 17.5H3.74996C2.59937 17.5 1.66663 16.5673 1.66663 15.4167ZM2.91663 11.25V15.4167C2.91663 15.8769 3.28972 16.25 3.74996 16.25H12.0833C12.5435 16.25 12.9166 15.8769 12.9166 15.4167V11.25C12.9166 10.7898 12.5435 10.4167 12.0833 10.4167H10.8333C10.571 10.4167 10.324 10.2932 10.1666 10.0833L9.41663 9.08333C9.25925 8.87349 9.01226 8.75 8.74996 8.75H7.08329C6.821 8.75 6.574 8.87349 6.41663 9.08333L5.66663 10.0833C5.50925 10.2932 5.26226 10.4167 4.99996 10.4167H3.74996C3.28972 10.4167 2.91663 10.7898 2.91663 11.25Z" fill="#171717"/>
</svg>
