<svg width="24" height="25" viewBox="0 0 24 25" fill="none" xmlns="http://www.w3.org/2000/svg">
<path fill-rule="evenodd" clip-rule="evenodd" d="M4.5 3.06586C3.67157 3.06586 3 3.73743 3 4.56586V5.06586C3 8.79354 5.54955 11.9257 9 12.8138V17.8132C9 18.4288 9.321 18.9916 9.82918 19.2669L12.8292 20.8922C13.8265 21.4325 15 20.6467 15 19.4385V12.8138C18.4505 11.9257 21 8.79354 21 5.06586V4.56586C21 3.73743 20.3284 3.06586 19.5 3.06586H4.5ZM19.5 4.56586H4.5V5.06586C4.5 8.0076 6.45421 10.4929 9.13526 11.2944C9.88669 11.5191 10.5 12.1528 10.5 12.9371V17.8132C10.5 17.861 10.5127 17.8994 10.527 17.9244C10.536 17.9403 10.5434 17.9472 10.5456 17.949L13.4807 19.5392C13.4896 19.5207 13.5 19.489 13.5 19.4385V12.9371C13.5 12.1528 14.1133 11.5191 14.8647 11.2944C17.5458 10.4929 19.5 8.0076 19.5 5.06586V4.56586Z" fill="#001F2A"/>
</svg>
