<svg width="40" height="40" viewBox="0 0 40 40" fill="none" xmlns="http://www.w3.org/2000/svg">
<g clip-path="url(#clip0_3162_31753)">
<rect width="40" height="40" rx="20" fill="#DD001B"/>
<path d="M19.9987 29.1152C19.8206 29.1152 19.6513 29.0429 19.5253 28.9133L11.6321 20.7668C9.45597 18.5214 9.45597 14.8674 11.6321 12.6219C13.8099 10.3752 17.3499 10.3758 19.5254 12.6219L19.9987 13.1092L20.4707 12.6219C21.5254 11.5327 22.9284 10.9341 24.4173 10.9341C25.9089 10.9341 27.3106 11.5327 28.3646 12.622C29.4192 13.7099 30 15.1568 30 16.6946C30 18.234 29.4193 19.6806 28.3646 20.7668L20.4713 28.9134C20.3463 29.0429 20.1761 29.1152 19.9987 29.1152Z" fill="white"/>
</g>
<defs>
<clipPath id="clip0_3162_31753">
<rect width="40" height="40" rx="20" fill="white"/>
</clipPath>
</defs>
</svg>
