<svg width="40" height="40" viewBox="0 0 40 40" fill="none" xmlns="http://www.w3.org/2000/svg">
<g clip-path="url(#clip0_3162_30427)">
<rect width="40" height="40" rx="20" fill="#E6F0FF"/>
<path d="M15.5787 12.3186C14.4918 12.3186 13.4052 12.7454 12.58 13.5979C10.9247 15.3059 10.9247 18.0826 12.58 19.79L19.998 27.448L27.4173 19.7901C28.2181 18.9629 28.6608 17.8633 28.6608 16.694C28.6608 15.5247 28.2181 14.4254 27.4173 13.598C26.6152 12.7708 25.5494 12.3154 24.4166 12.3154C23.2851 12.3154 22.2187 12.7715 21.4172 13.598L20.4706 14.5749C20.2193 14.8327 19.776 14.8346 19.5247 14.5749L18.5787 13.598C17.7519 12.7454 16.6659 12.3186 15.5787 12.3186ZM19.9987 29.1153C19.8206 29.1153 19.6507 29.043 19.5253 28.9134L11.6321 20.7669C9.45597 18.5214 9.45597 14.8674 11.6321 12.622C13.8098 10.3752 17.3499 10.3759 19.5254 12.622L19.9987 13.1093L20.4707 12.622C21.5254 11.5328 22.9284 10.9341 24.4173 10.9341C25.9089 10.9341 27.3106 11.5327 28.3646 12.622C29.4192 13.7099 30 15.1568 30 16.6946C30 18.234 29.4193 19.6806 28.3646 20.7669L20.4713 28.9135C20.3463 29.043 20.1761 29.1153 19.9987 29.1153Z" fill="#0064FE"/>
</g>
<defs>
<clipPath id="clip0_3162_30427">
<rect width="40" height="40" rx="20" fill="white"/>
</clipPath>
</defs>
</svg>
