<svg width="24" height="25" viewBox="0 0 24 25" fill="none" xmlns="http://www.w3.org/2000/svg">
<path d="M10 2.81589C14.0041 2.81589 17.25 6.06182 17.25 10.0659C17.25 11.7978 16.6427 13.3878 15.6295 14.6347L20.5303 19.5356C20.8232 19.8284 20.8232 20.3033 20.5303 20.5962C20.2641 20.8625 19.8474 20.8867 19.5538 20.6688L19.4697 20.5962L14.5688 15.6954C13.3219 16.7086 11.7319 17.3159 10 17.3159C5.99594 17.3159 2.75 14.07 2.75 10.0659C2.75 6.06182 5.99594 2.81589 10 2.81589ZM10 4.31589C6.82436 4.31589 4.25 6.89025 4.25 10.0659C4.25 13.2415 6.82436 15.8159 10 15.8159C13.1756 15.8159 15.75 13.2415 15.75 10.0659C15.75 6.89025 13.1756 4.31589 10 4.31589Z" fill="#001F2A"/>
</svg>
