<svg width="40" height="40" viewBox="0 0 40 40" fill="none" xmlns="http://www.w3.org/2000/svg">
<g clip-path="url(#clip0_3162_31748)">
<rect width="40" height="40" rx="20" fill="#0064FE"/>
<path fill-rule="evenodd" clip-rule="evenodd" d="M30 24.9511C30 25.4075 29.6303 25.7775 29.1743 25.7775H10.8257C10.3697 25.7775 10 25.4075 10 24.9511C10 24.4977 10.3651 24.1295 10.8171 24.1249C10.813 24.1249 10.8109 24.1246 10.8109 24.1246C10.8109 24.1246 10.8132 24.1236 10.8178 24.1222C10.845 24.1143 10.9516 24.0832 11.1202 23.9632C11.3388 23.8075 11.6324 23.5204 11.9287 23.0191C12.5236 22.0128 13.1193 20.1578 13.1193 16.8859C13.1193 15.0596 13.8442 13.3082 15.1346 12.0168C16.425 10.7255 18.1751 10 20 10C21.8249 10 23.575 10.7255 24.8654 12.0168C26.1558 13.3082 26.8807 15.0596 26.8807 16.8859C26.8807 20.1644 27.4798 22.0189 28.0758 23.0231C28.3728 23.5234 28.6666 23.8095 28.8849 23.9645C29.0511 24.0826 29.1563 24.1139 29.1837 24.1221C29.1885 24.1235 29.1909 24.1246 29.1909 24.1246C29.1909 24.1246 29.1889 24.1249 29.1849 24.1249C29.636 24.1306 30 24.4983 30 24.9511Z" fill="white"/>
<path d="M18.6819 27.3278C18.567 26.8861 18.1161 26.6213 17.6748 26.7363C17.2335 26.8513 16.9689 27.3025 17.0838 27.7441C17.2518 28.3901 17.6293 28.962 18.157 29.3703C18.6848 29.7785 19.3329 30 20 30C20.667 30 21.3152 29.7785 21.8429 29.3703C22.3706 28.962 22.7481 28.3901 22.9162 27.7441C23.031 27.3025 22.7664 26.8513 22.3251 26.7363C21.8838 26.6213 21.4329 26.8861 21.3181 27.3278C21.2421 27.6197 21.0715 27.8782 20.8329 28.0628C20.5944 28.2473 20.3014 28.3474 20 28.3474C19.6985 28.3474 19.4055 28.2473 19.167 28.0628C18.9284 27.8782 18.7578 27.6197 18.6819 27.3278Z" fill="white"/>
</g>
<defs>
<clipPath id="clip0_3162_31748">
<rect width="40" height="40" rx="20" fill="white"/>
</clipPath>
</defs>
</svg>
