<svg id="vector" xmlns="http://www.w3.org/2000/svg" width="180" height="180" viewBox="0 0 180 180"><path fill="#ffffff" d="M0,0h180v180h-180z" id="path_0"/><path fill="#F2F5F8" d="M90,165C131.42,165 165,131.42 165,90C165,48.58 131.42,15 90,15C48.58,15 15,48.58 15,90C15,131.42 48.58,165 90,165Z" id="path_1"/><path fill="#ffffff" d="M120,64.5C120,81.07 106.57,94.5 90,94.5C73.43,94.5 60,81.07 60,64.5C60,47.93 73.43,34.5 90,34.5C106.57,34.5 120,47.93 120,64.5Z" id="path_2"/><path fill="#B3C0D5" d="M90,93C105.74,93 118.5,80.24 118.5,64.5C118.5,48.76 105.74,36 90,36C74.26,36 61.5,48.76 61.5,64.5C61.5,80.24 74.26,93 90,93ZM90,94.5C106.57,94.5 120,81.07 120,64.5C120,47.93 106.57,34.5 90,34.5C73.43,34.5 60,47.93 60,64.5C60,81.07 73.43,94.5 90,94.5Z" fill-rule="evenodd" id="path_3"/><path fill="#B3C0D5" d="M99.49,61.73V72.42C99.49,74.61 101.06,75.75 102.62,75.75C104.18,75.75 105.75,74.61 105.75,72.42V60.04C105.75,55.08 102.5,52.5 98.45,52.5C95.25,52.5 92.66,53.77 92.12,54.84L92,55.08L91.88,54.82C91.25,53.62 88.89,52.5 86.07,52.5C83.56,52.5 81.19,53.15 80.46,54.43L80.29,54.72L80.22,54.36C80,53.15 78.65,52.5 77.49,52.5C75.88,52.5 74.25,53.59 74.25,55.68V72.42C74.25,74.61 75.83,75.75 77.38,75.75C78.94,75.75 80.52,74.61 80.52,72.42V61.73C80.52,59.42 82.16,58.37 83.69,58.37C85.22,58.37 86.87,59.42 86.87,61.73V72.42C86.87,74.61 88.45,75.75 90,75.75C91.56,75.75 93.14,74.61 93.14,72.42V61.73C93.14,59.43 94.72,58.4 96.29,58.4C97.83,58.4 99.49,59.44 99.49,61.73Z" fill-rule="evenodd" id="path_4"/><path fill="#E6F0FF" d="M65.17,81.75H39.63L26.77,104.23C24.87,107.55 27.27,111.69 31.1,111.69H41.76C45.29,111.69 48.56,109.83 50.35,106.8L65.17,81.75Z" id="path_5"/><path fill="#B3C0D5" d="M66.49,81H39.19L26.12,103.85C23.93,107.68 26.69,112.44 31.1,112.44H41.76C45.55,112.44 49.07,110.44 51,107.18L66.49,81ZM63.86,82.5L49.71,106.41C48.05,109.22 45.02,110.94 41.76,110.94H31.1C27.85,110.94 25.81,107.43 27.42,104.6L40.06,82.5H63.86Z" fill-rule="evenodd" id="path_6"/><path fill="#E6F0FF" d="M39.97,86.74C39.97,83.98 42.2,81.75 44.96,81.75H134.79C137.55,81.75 139.78,83.98 139.78,86.74V146.63C139.78,152.14 135.31,156.61 129.8,156.61H49.95C44.44,156.61 39.97,152.14 39.97,146.63V86.74Z" id="path_7"/><path fill="#B3C0D5" d="M39.22,86.74C39.22,83.57 41.79,81 44.96,81H134.79C137.96,81 140.53,83.57 140.53,86.74V146.63C140.53,152.56 135.73,157.36 129.8,157.36H49.95C44.02,157.36 39.22,152.56 39.22,146.63V86.74ZM44.96,82.5C42.62,82.5 40.72,84.4 40.72,86.74V146.63C40.72,151.73 44.85,155.86 49.95,155.86H129.8C134.9,155.86 139.03,151.73 139.03,146.63V86.74C139.03,84.4 137.13,82.5 134.79,82.5H44.96Z" fill-rule="evenodd" id="path_8"/><path fill="#ffffff" d="M39.97,81.75H114.83V146.63C114.83,152.14 110.36,156.61 104.85,156.61H49.95C44.44,156.61 39.97,152.14 39.97,146.63V81.75Z" id="path_9"/><path fill="#B3C0D5" d="M39.22,81H115.58V146.63C115.58,152.56 110.77,157.36 104.85,157.36H49.95C44.02,157.36 39.22,152.56 39.22,146.63V81ZM40.72,82.5V146.63C40.72,151.73 44.85,155.86 49.95,155.86H104.85C109.95,155.86 114.08,151.73 114.08,146.63V82.5H40.72Z" fill-rule="evenodd" id="path_10"/><path fill="#ffffff" d="M114.83,81.75H136.94C138.7,81.75 140.33,82.68 141.23,84.2L153.04,104.16C155.01,107.49 152.61,111.69 148.75,111.69H138.24C134.71,111.69 131.44,109.83 129.65,106.8L114.83,81.75Z" id="path_11"/><path fill="#B3C0D5" d="M113.51,81H136.94C138.97,81 140.84,82.07 141.88,83.82L153.69,103.78C155.95,107.61 153.2,112.44 148.75,112.44H138.24C134.45,112.44 130.93,110.44 129,107.18L113.51,81ZM116.14,82.5L130.29,106.41C131.96,109.22 134.98,110.94 138.24,110.94H148.75C152.03,110.94 154.07,107.37 152.4,104.54L140.59,84.58C139.82,83.29 138.44,82.5 136.94,82.5H116.14Z" fill-rule="evenodd" id="path_12"/></svg>